<?xml version="1.0" encoding="UTF-8"?>
<svg version="1.1" xmlns="http://www.w3.org/2000/svg" width="572" height="429">
<path d="M0 0 C4.9967029 3.81427702 9.5072823 7.74210373 10.74609375 14.140625 C10.55859375 17.953125 10.55859375 17.953125 9.05859375 21.015625 C6.55859375 22.953125 6.55859375 22.953125 3.18359375 23.078125 C-4.40016079 20.72454601 -7.64885176 15.56837522 -11.828125 9.16015625 C-13.4169168 6.72073043 -13.4169168 6.72073043 -16.44140625 4.953125 C-27.99119854 4.23566466 -39.50181232 8.3929574 -50.36328125 11.90234375 C-51.54698303 12.27865433 -52.73068481 12.6549649 -53.95025635 13.04267883 C-57.69930727 14.23582613 -61.44544081 15.4378299 -65.19140625 16.640625 C-68.87918147 17.81860355 -72.5675583 18.99467934 -76.25611877 20.17019653 C-78.70282979 20.9500472 -81.14923106 21.73087029 -83.59532166 22.51266479 C-91.77247355 25.1213171 -99.9696291 27.65724722 -108.1796875 30.16015625 C-118.16092367 33.20847682 -128.04129168 36.47184143 -137.87890625 39.953125 C-140.60492452 40.91682064 -143.33302564 41.87426898 -146.0625 42.828125 C-147.80164673 43.44300781 -147.80164673 43.44300781 -149.57592773 44.0703125 C-152.44140625 44.953125 -152.44140625 44.953125 -155.44140625 44.953125 C-152.83590718 47.69707343 -150.29515013 49.85164398 -147.08203125 51.84375 C-146.22480469 52.38088623 -145.36757813 52.91802246 -144.484375 53.47143555 C-143.56269531 54.04289307 -142.64101563 54.61435059 -141.69140625 55.203125 C-132.13391984 61.19504511 -122.72593442 67.3819377 -113.38769531 73.70996094 C-110.75471648 75.48340994 -108.10509382 77.22627097 -105.44140625 78.953125 C-103.95640625 79.92185547 -103.95640625 79.92185547 -102.44140625 80.91015625 C-91.59843609 84.6797826 -79.94833482 80.05198272 -69.37890625 77.140625 C-53.2475971 72.73407681 -36.98459317 68.31362609 -20.12890625 68.515625 C-18.74227783 68.52698486 -18.74227783 68.52698486 -17.32763672 68.53857422 C-6.59473172 68.79604366 3.82043776 70.9222728 11.55859375 78.953125 C16.91623022 86.02950199 18.37600419 92.11561503 17.55859375 100.953125 C15.55752905 109.03385761 10.45105449 113.86518134 3.578125 118.203125 C-15.69663772 128.66766683 -40.5223928 122.63795077 -60.24755859 116.83300781 C-61.6078514 116.42808359 -62.96803804 116.02280258 -64.328125 115.6171875 C-65.01331207 115.41401413 -65.69849915 115.21084076 -66.40444946 115.00151062 C-69.80138009 113.99255014 -73.19074706 112.96638128 -76.5703125 111.90063477 C-85.57065642 109.1581975 -94.89092274 106.60119361 -103.81640625 110.890625 C-104.79222656 111.33792969 -105.76804687 111.78523438 -106.7734375 112.24609375 C-107.3298291 112.50825684 -107.8862207 112.77041992 -108.45947266 113.04052734 C-112.76523186 115.02314965 -117.14431257 116.84280984 -121.50390625 118.703125 C-122.43315918 119.10394287 -123.36241211 119.50476074 -124.31982422 119.91772461 C-125.19654785 120.29550049 -126.07327148 120.67327637 -126.9765625 121.0625 C-127.76426025 121.40249023 -128.55195801 121.74248047 -129.36352539 122.09277344 C-131.02904769 122.78238695 -132.73126643 123.38307839 -134.44140625 123.953125 C-134.37206855 126.86530858 -134.18877561 129.11974424 -132.18554688 131.35351562 C-127.07211722 135.63185263 -121.63856057 139.2722277 -116.00390625 142.828125 C-115.03324219 143.44091309 -114.06257812 144.05370117 -113.0625 144.68505859 C-98.4744011 153.7809692 -83.91399548 161.55531786 -66.44140625 162.953125 C-66.77140625 162.293125 -67.10140625 161.633125 -67.44140625 160.953125 C-67.48139825 158.95352488 -67.48487424 156.95265258 -67.44140625 154.953125 C-63.09195166 152.47758509 -59.34482448 152.41612588 -54.44140625 152.953125 C-49.95479931 154.58461843 -47.79110811 157.68844744 -45.45703125 161.69921875 C-43.79081752 165.39693152 -43.17062068 168.90681491 -43.44140625 172.953125 C-45.00352721 176.73510207 -46.95851495 178.85753662 -50.44140625 180.953125 C-80.32119773 185.34721198 -107.85401224 166.39630182 -130.50390625 149.578125 C-131.6638208 148.70389893 -131.6638208 148.70389893 -132.84716797 147.81201172 C-142.8518693 140.29060857 -149.5712306 136.04249936 -162.44140625 136.953125 C-164.43340844 137.39925049 -166.41414176 137.89922863 -168.37890625 138.453125 C-179.36314355 141.4202956 -188.3040361 140.10852064 -198.80078125 136.2578125 C-205.56662667 133.83314257 -212.49068308 132.27758663 -219.56640625 131.078125 C-228.38473102 129.33710743 -235.92359809 125.11094837 -241.44140625 117.953125 C-243.964388 113.81723705 -245.16262999 109.79562723 -244.44140625 104.953125 C-242.47259085 100.93674159 -241.02605537 99.26710323 -237.06640625 97.140625 C-216.73799094 90.48131654 -193.90919126 97.17940646 -175.20483398 105.75415039 C-165.14567251 110.3525228 -158.69184243 112.51352986 -148.00390625 108.578125 C-140.78197043 105.74165196 -133.7750481 102.37870607 -126.82446289 98.93798828 C-123.04588881 97.08337993 -119.67497954 95.470656 -115.44140625 94.953125 C-119.62482906 90.46789213 -124.29049973 86.97453168 -129.25390625 83.390625 C-130.95878649 82.14775679 -132.66320601 80.90425637 -134.3671875 79.66015625 C-135.21877441 79.03963379 -136.07036133 78.41911133 -136.94775391 77.77978516 C-140.63641207 75.07775458 -144.28970398 72.32977231 -147.94140625 69.578125 C-149.24195435 68.60255368 -150.54272824 67.62728329 -151.84375 66.65234375 C-153.59276813 65.34162262 -155.34055301 64.02955261 -157.08251953 62.70947266 C-168.34700907 54.17684357 -176.92509538 51.63970569 -190.93475342 53.23748779 C-197.40008424 54.13192155 -203.82604274 55.26249625 -210.25390625 56.390625 C-213.11683446 56.88308063 -215.98032769 57.37196073 -218.84440613 57.85768127 C-220.60944648 58.15804533 -222.37376956 58.46267141 -224.13716125 58.77256775 C-242.23778279 61.8959897 -262.72732056 64.35725832 -278.66796875 53.29296875 C-279.25320313 52.85082031 -279.8384375 52.40867188 -280.44140625 51.953125 C-281.06789063 51.50066406 -281.694375 51.04820312 -282.33984375 50.58203125 C-287.61045036 46.47896408 -290.62367159 42.09455538 -291.92578125 35.5 C-292.31401102 30.63219596 -291.63852872 27.47037713 -288.62890625 23.578125 C-279.06592524 14.05354953 -263.02904292 13.55938986 -250.26660156 13.58251953 C-225.51345312 14.15493008 -198.81366962 20.59711592 -177.00390625 32.328125 C-170.66518721 35.21947052 -165.55148798 33.94732463 -159.1484375 31.75 C-158.45803375 31.51654877 -157.76763 31.28309753 -157.05630493 31.04257202 C-154.78543659 30.27236862 -152.5198692 29.48762994 -150.25390625 28.703125 C-148.64044315 28.1536451 -147.02658423 27.60532623 -145.41235352 27.05810547 C-142.0659545 25.92257315 -138.72130436 24.78210076 -135.37792969 23.63769531 C-123.3944087 19.54106988 -111.36791199 15.57024828 -99.34765625 11.58300781 C-95.8904503 10.4357034 -92.43503922 9.28314461 -88.98046875 8.12792969 C-84.21708513 6.53577714 -79.45001707 4.95506657 -74.68069458 3.38079834 C-72.84980263 2.77458922 -71.02005402 2.16491301 -69.19161987 1.55133057 C-21.42345007 -14.46462728 -21.42345007 -14.46462728 0 0 Z M-278.44140625 29.953125 C-280.86644648 32.65531268 -281.44140625 33.86216655 -281.44140625 37.453125 C-279.37545179 42.61801116 -275.76837589 45.01497825 -270.81640625 47.140625 C-251.10670192 54.24762787 -230.44755254 51.03430932 -210.44140625 46.953125 C-208.57311832 46.5901065 -206.70463208 46.22810688 -204.8359375 45.8671875 C-203.09986186 45.52283666 -201.36416367 45.17657562 -199.62890625 44.828125 C-198.8282373 44.66989258 -198.02756836 44.51166016 -197.20263672 44.34863281 C-192.89244056 43.51623508 -192.89244056 43.51623508 -189.44140625 40.953125 C-192.26935868 36.89897374 -194.29574277 35.22102834 -199.02734375 33.8203125 C-200.11571533 33.49039307 -201.20408691 33.16047363 -202.32543945 32.82055664 C-203.4774585 32.4930542 -204.62947754 32.16555176 -205.81640625 31.828125 C-206.99871826 31.48193115 -208.18103027 31.1357373 -209.39916992 30.77905273 C-212.74041207 29.81314046 -216.08824415 28.87667675 -219.44140625 27.953125 C-220.55491455 27.63867432 -220.55491455 27.63867432 -221.69091797 27.31787109 C-238.64313724 22.62666263 -262.67788852 20.73655213 -278.44140625 29.953125 Z M-75.44140625 92.953125 C-75.85921504 95.32618078 -75.85921504 95.32618078 -75.44140625 97.953125 C-71.07318934 101.35961514 -65.75479629 102.50900176 -60.50390625 103.953125 C-59.09057007 104.34504028 -59.09057007 104.34504028 -57.64868164 104.74487305 C-54.91613891 105.49359489 -52.17986792 106.22639148 -49.44140625 106.953125 C-48.19101562 107.28957031 -46.940625 107.62601563 -45.65234375 107.97265625 C-30.75565166 111.58128214 -12.40172825 113.5293542 1.9296875 106.84765625 C5.88463474 104.3069521 8.16289965 101.40189994 9.55859375 96.953125 C9.79222216 94.058412 9.56340882 91.68531878 8.55859375 88.953125 C2.8633381 82.70223465 -4.70837563 80.40086295 -13.015625 79.90625 C-33.75227754 80.18998983 -55.83036075 86.41610983 -75.44140625 92.953125 Z M-233.44140625 107.953125 C-235.59334995 111.18104055 -235.64227068 112.23713309 -235.44140625 115.953125 C-220.82335196 124.78486613 -200.57838442 124.91239888 -184.25390625 121.453125 C-182.31124599 120.97356544 -180.37122048 120.48201373 -178.44140625 119.953125 C-178.44140625 118.633125 -178.44140625 117.313125 -178.44140625 115.953125 C-184.95213487 112.33692513 -191.3394007 110.47261711 -198.56640625 108.765625 C-199.62472656 108.50587891 -200.68304688 108.24613281 -201.7734375 107.97851562 C-208.6797079 106.30177369 -215.36900338 104.81360092 -222.50390625 104.703125 C-223.50550781 104.67734375 -224.50710938 104.6515625 -225.5390625 104.625 C-228.92106255 105.00735263 -230.72216267 105.93607777 -233.44140625 107.953125 Z " fill="#DD75BE" transform="translate(482.44140625,117.046875)"/>
<path d="M0 0 C-0.33 0.66 -0.66 1.32 -1 2 C-6.62790698 1.10465116 -6.62790698 1.10465116 -9 0.4375 C-11.68488499 -0.14981859 -14.2616784 -0.06223458 -17 0 C-16.505 2.475 -16.505 2.475 -16 5 C-15.40574219 5.08636719 -14.81148438 5.17273438 -14.19921875 5.26171875 C-7.21927086 6.44494475 -1.31947517 8.85227662 5 12 C1.88885373 13.55557314 -0.22237372 12.20381593 -3.4921875 11.19921875 C-4.84215844 10.79452464 -6.19243141 10.39083699 -7.54296875 9.98803711 C-8.25114746 9.77484833 -8.95932617 9.56165955 -9.68896484 9.3420105 C-22.77015587 5.42543266 -35.28368562 2.5110646 -49 2 C-49 1.67 -49 1.34 -49 1 C-47.51886719 0.92652344 -47.51886719 0.92652344 -46.0078125 0.8515625 C-44.72648437 0.77679688 -43.44515625 0.70203125 -42.125 0.625 C-40.21074219 0.52058594 -40.21074219 0.52058594 -38.2578125 0.4140625 C-34.91938301 0.32758894 -34.91938301 0.32758894 -33 -2 C-30.875 -2.625 -30.875 -2.625 -29 -3 C-29 -3.66 -29 -4.32 -29 -5 C-29.99 -4.67 -30.98 -4.34 -32 -4 C-33.8125 -4.3046875 -33.8125 -4.3046875 -36 -4.875 C-48.72615082 -7.6100061 -62.1216866 -7.36556341 -75 -6 C-75 -6.33 -75 -6.66 -75 -7 C-49.76482405 -12.64139662 -24.45148933 -6.59973827 0 0 Z " fill="#D977BB" transform="translate(284,140)"/>
<path d="M0 0 C-2.31375135 1.42425426 -3.57983754 2.03742624 -6.32421875 1.79296875 C-7.10410156 1.59316406 -7.88398438 1.39335937 -8.6875 1.1875 C-9.47511719 0.99542969 -10.26273437 0.80335938 -11.07421875 0.60546875 C-13 0 -13 0 -14 -1 C-14.804375 -0.979375 -15.60875 -0.95875 -16.4375 -0.9375 C-19.35738993 -0.98872614 -21.40512378 -1.275956 -24.1875 -1.9375 C-36.85238845 -4.61183542 -50.19394888 -4.35790102 -63 -3 C-63 -3.33 -63 -3.66 -63 -4 C-41.96668052 -8.70205944 -20.5899396 -5.42226167 0 0 Z " fill="#CF7CB3" transform="translate(272,137)"/>
<path d="M0 0 C29.37174417 -1.02822856 29.37174417 -1.02822856 36.83203125 5.63671875 C37.41017578 6.31154297 37.41017578 6.31154297 38 7 C35.50624695 6.58437449 33.35750625 6.18168351 31.09375 5.03125 C24.04718294 1.56055279 16.11079748 1.80669291 8.44628906 2.07373047 C4.69019376 2.16978259 3.2215561 2.14770407 0 0 Z " fill="#CB7FB5" transform="translate(451,186)"/>
<path d="M0 0 C8.65555861 2.09408676 16.17227518 5.88311303 24 10 C20.11764181 11.49828872 17.56550712 10.43110582 13.75 9.0625 C12.67234375 8.68222656 11.5946875 8.30195313 10.484375 7.91015625 C9.25460937 7.45962891 9.25460937 7.45962891 8 7 C8 6.34 8 5.68 8 5 C7.05125 4.731875 6.1025 4.46375 5.125 4.1875 C2 3 2 3 0 0 Z " fill="#D27DB6" transform="translate(285,141)"/>
<path d="M0 0 C3.87460798 1.25662962 5.9860255 2.39604563 8 6 C8 7.32 8 8.64 8 10 C7.113125 10.433125 6.22625 10.86625 5.3125 11.3125 C2.0656199 12.88154452 2.0656199 12.88154452 -0.5 14.6875 C-3.51734004 16.27160352 -5.63949913 16.23445355 -9 16 C-6.53859635 13.53859635 -4.21543707 12.69673014 -1 11.375 C0.0725 10.92898437 1.145 10.48296875 2.25 10.0234375 C5 9 5 9 7 9 C6.236875 8.236875 5.47375 7.47375 4.6875 6.6875 C2.79166667 4.79166667 0.89583333 2.89583333 -1 1 C-0.67 0.67 -0.34 0.34 0 0 Z " fill="#D17BB5" transform="translate(360,203)"/>
<path d="M0 0 C6.93 0.495 6.93 0.495 14 1 C12.02 1.99 12.02 1.99 10 3 C9.3503125 3.8353125 9.3503125 3.8353125 8.6875 4.6875 C7 6 7 6 3.3125 5.6875 C2.219375 5.460625 1.12625 5.23375 0 5 C-0.33 4.01 -0.66 3.02 -1 2 C-0.67 1.34 -0.34 0.68 0 0 Z " fill="#E078C1" transform="translate(250,237)"/>
<path d="M0 0 C-4.75 3 -4.75 3 -7 3 C-6.925329 6.13618207 -6.66646905 8.28555889 -4.48046875 10.62890625 C-3.27014889 11.64557493 -2.04005 12.63928054 -0.7890625 13.60546875 C0.95210648 14.96266815 2.47142086 16.41046525 4 18 C-1.34420143 16.69653624 -5.63483501 14.393944 -9 10 C-9.94665127 6.83051568 -9.66646326 5.38785488 -9 2 C-5.9520574 -0.79394738 -3.87966931 -1.58060601 0 0 Z " fill="#D17BB4" transform="translate(355,238)"/>
<path d="M0 0 C5.48335442 0.42698252 10.66719505 1.06958924 15.97265625 2.5234375 C19.59836419 3.37572337 23.29543503 3.67413549 27 4 C27 4.66 27 5.32 27 6 C27.66 6 28.32 6 29 6 C29 6.66 29 7.32 29 8 C27.99582031 7.74605469 26.99164063 7.49210938 25.95703125 7.23046875 C17.32536651 5.05559448 8.68283329 2.96255821 0 1 C0 0.67 0 0.34 0 0 Z " fill="#CC7AB5" transform="translate(272,223)"/>
<path d="M0 0 C0.98742187 0.56589844 1.97484375 1.13179687 2.9921875 1.71484375 C4.28644206 2.45575759 5.58071379 3.19664145 6.875 3.9375 C7.52597656 4.31068359 8.17695313 4.68386719 8.84765625 5.06835938 C13.44708652 7.69999216 16.35494954 9.1335424 21.625 9.5625 C22.62789063 9.64628906 23.63078125 9.73007813 24.6640625 9.81640625 C25.82035156 9.90728516 25.82035156 9.90728516 27 10 C27 10.33 27 10.66 27 11 C18.66806816 11.70521053 13.09742409 11.39248354 6.21875 6.41015625 C3.78749067 4.86493685 1.83285576 4.39400635 -1 4 C-0.67 2.68 -0.34 1.36 0 0 Z " fill="#CF7DB5" transform="translate(367,190)"/>
<path d="M0 0 C0.99 0.33 1.98 0.66 3 1 C2.67 1.99 2.34 2.98 2 4 C3.32 4 4.64 4 6 4 C6.33 5.32 6.66 6.64 7 8 C5.35 8.33 3.7 8.66 2 9 C0.68 7.35 -0.64 5.7 -2 4 C-1.34 2.68 -0.68 1.36 0 0 Z " fill="#E273BF" transform="translate(490,198)"/>
<path d="M0 0 C0.66 0.33 1.32 0.66 2 1 C1.67 1.66 1.34 2.32 1 3 C3.64 2.67 6.28 2.34 9 2 C5.83433427 4.11044382 3.48802585 4.75552077 -0.1875 5.625 C-1.27417969 5.88539063 -2.36085938 6.14578125 -3.48046875 6.4140625 C-4.31191406 6.60742188 -5.14335937 6.80078125 -6 7 C-6 6.01 -6 5.02 -6 4 C-3 1.8125 -3 1.8125 0 0 Z " fill="#D178B5" transform="translate(423,201)"/>
<path d="M0 0 C0.825 0.845625 1.65 1.69125 2.5 2.5625 C4.7760635 5.34905007 4.7760635 5.34905007 8 5 C8 6.32 8 7.64 8 9 C2.66666667 6.33333333 -2.66666667 3.66666667 -8 1 C-8 0.67 -8 0.34 -8 0 C-4.71303767 -0.79953138 -3.28976808 -1.09658936 0 0 Z " fill="#D07BB6" transform="translate(317,169)"/>
<path d="M0 0 C2.0625 2.0625 2.0625 2.0625 4 5 C3.81170224 8.6404233 3.14922369 11.55232893 2 15 C-0.20155845 10.4134199 -1.48320315 7.19443385 -1 2 C-0.67 1.34 -0.34 0.68 0 0 Z " fill="#D17AB5" transform="translate(239,220)"/>
<path d="M0 0 C0.33 1.65 0.66 3.3 1 5 C0.154375 4.34 -0.69125 3.68 -1.5625 3 C-7.85461185 -0.66086508 -15.0129246 1.2127239 -22 2 C-15.15312101 -1.53109483 -7.43309865 -2.12374247 0 0 Z " fill="#CF7AB2" transform="translate(471,121)"/>
<path d="M0 0 C0.99 0.33 1.98 0.66 3 1 C-6.84466019 10 -6.84466019 10 -12 10 C-12 9.34 -12 8.68 -12 8 C-11.38125 7.71125 -10.7625 7.4225 -10.125 7.125 C-7.86674235 6.06279958 -7.86674235 6.06279958 -6 4 C-4.68 4 -3.36 4 -2 4 C-1.34 2.68 -0.68 1.36 0 0 Z " fill="#D179B3" transform="translate(492,227)"/>
<path d="M0 0 C0.99 0.33 1.98 0.66 3 1 C3 1.66 3 2.32 3 3 C3.99 3.33 4.98 3.66 6 4 C-0.93 4 -7.86 4 -15 4 C-15 3.01 -15 2.02 -15 1 C-10.05 1.33 -5.1 1.66 0 2 C0 1.34 0 0.68 0 0 Z " fill="#CE7AB6" transform="translate(266,219)"/>
<path d="M0 0 C5.56890517 0.47986031 10.67067568 1.29915181 16 3 C14.375 4.125 14.375 4.125 12 5 C9.1875 4.1875 9.1875 4.1875 6 3 C3.67305036 2.62468554 1.34023315 2.28082798 -1 2 C-0.67 1.34 -0.34 0.68 0 0 Z " fill="#D17AB6" transform="translate(414,219)"/>
<path d="M0 0 C0.33 0.66 0.66 1.32 1 2 C-0.26839526 2.50615298 -1.53983102 3.00469099 -2.8125 3.5 C-3.87404297 3.91765625 -3.87404297 3.91765625 -4.95703125 4.34375 C-7 5 -7 5 -10 5 C-10 5.66 -10 6.32 -10 7 C-12.97 6.505 -12.97 6.505 -16 6 C-12.77621244 3.8508083 -10.01585352 2.975006 -6.3125 1.875 C-5.13300781 1.52179688 -3.95351563 1.16859375 -2.73828125 0.8046875 C-1.38283203 0.40636719 -1.38283203 0.40636719 0 0 Z " fill="#D17EB5" transform="translate(416,118)"/>
<path d="M0 0 C0.804375 0.433125 0.804375 0.433125 1.625 0.875 C4.35280484 2.16711808 7.12612718 3.08558592 10 4 C10 4.66 10 5.32 10 6 C10.99 6.33 11.98 6.66 13 7 C12.01 7.495 12.01 7.495 11 8 C8.75689987 7.10333658 6.55245679 6.10853317 4.375 5.0625 C3.18648438 4.49660156 1.99796875 3.93070312 0.7734375 3.34765625 C-0.14179688 2.90292969 -1.05703125 2.45820313 -2 2 C-1.34 1.34 -0.68 0.68 0 0 Z " fill="#CD7EB4" transform="translate(381,283)"/>
<path d="M0 0 C4.26488247 -0.3118744 6.98566073 0.65574011 10.8125 2.5 C12.27623047 3.19609375 12.27623047 3.19609375 13.76953125 3.90625 C14.50558594 4.2671875 15.24164063 4.628125 16 5 C12.85681547 6.57159226 10.07066611 5.04018399 6.875 4.0625 C6.21628906 3.86720703 5.55757813 3.67191406 4.87890625 3.47070312 C3.25066448 2.98695014 1.62506818 2.49430925 0 2 C0 1.34 0 0.68 0 0 Z " fill="#D280B7" transform="translate(273,147)"/>
<path d="M0 0 C-0.969375 0.268125 -1.93875 0.53625 -2.9375 0.8125 C-3.948125 1.204375 -4.95875 1.59625 -6 2 C-6.33 2.99 -6.66 3.98 -7 5 C-9.64 4.67 -12.28 4.34 -15 4 C-12.18438333 2.52790818 -9.38026161 1.34273182 -6.375 0.3125 C-5.59898437 0.04050781 -4.82296875 -0.23148437 -4.0234375 -0.51171875 C-2 -1 -2 -1 0 0 Z " fill="#D17AB4" transform="translate(433,114)"/>
<path d="M0 0 C3.08379096 2.77541186 4.85411529 4.98940353 6 9 C6.125 12.3125 6.125 12.3125 6 15 C4 11.25 4 11.25 4 9 C3.34 9 2.68 9 2 9 C1.34 6.03 0.68 3.06 0 0 Z " fill="#CC7DB3" transform="translate(433,275)"/>
<path d="M0 0 C3.92297846 0.56340648 6.49080356 1.70090379 9.75 3.9375 C10.52859375 4.46214844 11.3071875 4.98679687 12.109375 5.52734375 C14 7 14 7 15 9 C14.484375 8.731875 13.96875 8.46375 13.4375 8.1875 C10.33598585 6.67650593 7.17737194 5.34427274 4 4 C4 3.34 4 2.68 4 2 C2.68 1.34 1.36 0.68 0 0 Z " fill="#D07EB9" transform="translate(469,111)"/>
<path d="M0 0 C0.33 0 0.66 0 1 0 C1.33 3.96 1.66 7.92 2 12 C2.99 12 3.98 12 5 12 C4.34 13.32 3.68 14.64 3 16 C-0.39366878 10.62669111 -0.32712342 6.13053511 0 0 Z " fill="#C97CB1" transform="translate(191,145)"/>
<path d="M0 0 C3.63 0.33 7.26 0.66 11 1 C10.01 2.485 10.01 2.485 9 4 C2.25 3.125 2.25 3.125 0 2 C0 1.34 0 0.68 0 0 Z " fill="#D47BB1" transform="translate(480,136)"/>
<path d="M0 0 C4.13668518 0.60833606 7.40978685 1.84587211 11 4 C12.375 6.1875 12.375 6.1875 13 8 C8.27626146 6.37621488 4.05818166 3.89006982 0 1 C0 0.67 0 0.34 0 0 Z " fill="#CD7FB5" transform="translate(363,274)"/>
<path d="M0 0 C3.3 0.99 6.6 1.98 10 3 C5.64467851 5.17766075 4.53374042 5.03039555 0 4 C-0.33 3.01 -0.66 2.02 -1 1 C-0.67 0.67 -0.34 0.34 0 0 Z " fill="#D47BB3" transform="translate(390,274)"/>
<path d="M0 0 C2 1.375 2 1.375 4 3 C4 3.66 4 4.32 4 5 C2.68 4.67 1.36 4.34 0 4 C-0.33 6.31 -0.66 8.62 -1 11 C-1.33 11 -1.66 11 -2 11 C-2.05399736 9.54207116 -2.09279177 8.08357288 -2.125 6.625 C-2.15980469 5.40683594 -2.15980469 5.40683594 -2.1953125 4.1640625 C-2 2 -2 2 0 0 Z " fill="#D478BA" transform="translate(194,141)"/>
<path d="M0 0 C1.32 0.33 2.64 0.66 4 1 C3.01 1 2.02 1 1 1 C1.598125 1.598125 2.19625 2.19625 2.8125 2.8125 C4.54166667 4.54166667 6.27083333 6.27083333 8 8 C5.6875 8.25 5.6875 8.25 3 8 C1.1875 6.25 1.1875 6.25 0 4 C0 2.68 0 1.36 0 0 Z " fill="#D576B3" transform="translate(326,161)"/>
<path d="M0 0 C2.94865641 2.10618315 5.4837822 4.39391727 8 7 C6.68 7.33 5.36 7.66 4 8 C0 2.25 0 2.25 0 0 Z " fill="#D27DB2" transform="translate(472,126)"/>
<path d="M0 0 C-3.08559304 2.26881841 -4.42209376 3.05451946 -8.3125 2.6875 C-9.199375 2.460625 -10.08625 2.23375 -11 2 C-7.00042393 -0.06874624 -4.43559483 -1.37656391 0 0 Z " fill="#D07EB8" transform="translate(413,196)"/>
<path d="M0 0 C-0.639375 0.103125 -1.27875 0.20625 -1.9375 0.3125 C-2.618125 0.539375 -3.29875 0.76625 -4 1 C-4.33 1.99 -4.66 2.98 -5 4 C-6.98 4 -8.96 4 -11 4 C-8.32997607 0.73663741 -4.08378642 -2.04189321 0 0 Z " fill="#CF7CB3" transform="translate(333,147)"/>
<path d="M0 0 C-3.79692186 2.82561627 -6.18569279 4.56638908 -11 4 C-11 3.34 -11 2.68 -11 2 C-9.54494642 1.47007308 -8.08581873 0.9513211 -6.625 0.4375 C-5.81289063 0.14746094 -5.00078125 -0.14257812 -4.1640625 -0.44140625 C-2 -1 -2 -1 0 0 Z " fill="#CD7FB5" transform="translate(380,131)"/>
<path d="M0 0 C2.7839183 1.39195915 2.97898997 3.15575779 4 6 C2.35 6.33 0.7 6.66 -1 7 C-0.67 4.69 -0.34 2.38 0 0 Z " fill="#E284C7" transform="translate(484,119)"/>
<path d="M0 0 C0 0.99 0 1.98 0 3 C-2.8125 4.125 -2.8125 4.125 -6 5 C-6.99 4.34 -7.98 3.68 -9 3 C-6.03 2.01 -3.06 1.02 0 0 Z " fill="#D37AB5" transform="translate(336,225)"/>
<path d="M0 0 C7.42857143 1 7.42857143 1 11 2 C10.67 2.66 10.34 3.32 10 4 C5.78087253 3.5205537 3.20336822 2.83374881 0 0 Z " fill="#D27AB3" transform="translate(273,138)"/>
<path d="M0 0 C5.57142857 5.14285714 5.57142857 5.14285714 6 9 C5.01 8.34 4.02 7.68 3 7 C3 6.34 3 5.68 3 5 C2.34 4.67 1.68 4.34 1 4 C0.375 1.9375 0.375 1.9375 0 0 Z " fill="#CE7AAD" transform="translate(486,121)"/>
</svg>
